<svg
  id="waves"
  viewBox="0 0 960 540"
  preserveAspectRatio="none"
  width="960"
  height="540"
  xmlns="http://www.w3.org/2000/svg"
  xmlns:xlink="http://www.w3.org/1999/xlink"
  version="1.1"
>
  <!--rect x="0" y="0" width="960" height="540" fill="#001220"></rect-->
  <path
    id="waves_1_path_1"
    d="M0 358L22.8 358C45.7 358 91.3 358 137 351.8C182.7 345.7 228.3 333.3 274 333.3C319.7 333.3 365.3 345.7 411.2 359C457 372.3 503 386.7 548.8 389.8C594.7 393 640.3 385 686 379.3C731.7 373.7 777.3 370.3 823 370.5C868.7 370.7 914.3 374.3 937.2 376.2L960 378L960 541L937.2 541C914.3 541 868.7 541 823 541C777.3 541 731.7 541 686 541C640.3 541 594.7 541 548.8 541C503 541 457 541 411.2 541C365.3 541 319.7 541 274 541C228.3 541 182.7 541 137 541C91.3 541 45.7 541 22.8 541L0 541Z"
    fill="#fa7268"
  ></path>
  <path
    id="waves_2_path_1"
    style="visibility: hidden"
    d="M0 401L22.8 387.8C45.7 374.7 91.3 348.3 137 341.3C182.7 334.3 228.3 346.7 274 356.7C319.7 366.7 365.3 374.3 411.2 371.3C457 368.3 503 354.7 548.8 357.3C594.7 360 640.3 379 686 376.8C731.7 374.7 777.3 351.3 823 349C868.7 346.7 914.3 365.3 937.2 374.7L960 384L960 541L937.2 541C914.3 541 868.7 541 823 541C777.3 541 731.7 541 686 541C640.3 541 594.7 541 548.8 541C503 541 457 541 411.2 541C365.3 541 319.7 541 274 541C228.3 541 182.7 541 137 541C91.3 541 45.7 541 22.8 541L0 541Z"
    fill="#fa7268"
  ></path>

  <path
    id="waves_1_path_2"
    d="M0 385L22.8 387.7C45.7 390.3 91.3 395.7 137 394.5C182.7 393.3 228.3 385.7 274 389.2C319.7 392.7 365.3 407.3 411.2 414.7C457 422 503 422 548.8 418C594.7 414 640.3 406 686 406C731.7 406 777.3 414 823 410.8C868.7 407.7 914.3 393.3 937.2 386.2L960 379L960 541L937.2 541C914.3 541 868.7 541 823 541C777.3 541 731.7 541 686 541C640.3 541 594.7 541 548.8 541C503 541 457 541 411.2 541C365.3 541 319.7 541 274 541C228.3 541 182.7 541 137 541C91.3 541 45.7 541 22.8 541L0 541Z"
    fill="#ef5f67"
  ></path>
  <path
    id="waves_2_path_2"
    style="visibility: hidden"
    d="M0 393L22.8 392.2C45.7 391.3 91.3 389.7 137 394.5C182.7 399.3 228.3 410.7 274 414.8C319.7 419 365.3 416 411.2 407.5C457 399 503 385 548.8 375.5C594.7 366 640.3 361 686 361.7C731.7 362.3 777.3 368.7 823 373.8C868.7 379 914.3 383 937.2 385L960 387L960 541L937.2 541C914.3 541 868.7 541 823 541C777.3 541 731.7 541 686 541C640.3 541 594.7 541 548.8 541C503 541 457 541 411.2 541C365.3 541 319.7 541 274 541C228.3 541 182.7 541 137 541C91.3 541 45.7 541 22.8 541L0 541Z"
    fill="#ef5f67"
  ></path>

  <path
    id="waves_1_path_3"
    d="M0 453L22.8 449C45.7 445 91.3 437 137 437.8C182.7 438.7 228.3 448.3 274 452.8C319.7 457.3 365.3 456.7 411.2 453.8C457 451 503 446 548.8 435.8C594.7 425.7 640.3 410.3 686 404.7C731.7 399 777.3 403 823 413.7C868.7 424.3 914.3 441.7 937.2 450.3L960 459L960 541L937.2 541C914.3 541 868.7 541 823 541C777.3 541 731.7 541 686 541C640.3 541 594.7 541 548.8 541C503 541 457 541 411.2 541C365.3 541 319.7 541 274 541C228.3 541 182.7 541 137 541C91.3 541 45.7 541 22.8 541L0 541Z"
    fill="#e34c67"
  ></path>
  <path
    id="waves_2_path_3"
    style="visibility: hidden"
    d="M0 452L22.8 446.2C45.7 440.3 91.3 428.7 137 424.8C182.7 421 228.3 425 274 427.8C319.7 430.7 365.3 432.3 411.2 431.8C457 431.3 503 428.7 548.8 424C594.7 419.3 640.3 412.7 686 416.2C731.7 419.7 777.3 433.3 823 439.7C868.7 446 914.3 445 937.2 444.5L960 444L960 541L937.2 541C914.3 541 868.7 541 823 541C777.3 541 731.7 541 686 541C640.3 541 594.7 541 548.8 541C503 541 457 541 411.2 541C365.3 541 319.7 541 274 541C228.3 541 182.7 541 137 541C91.3 541 45.7 541 22.8 541L0 541Z"
    fill="#e34c67"
  ></path>

  <path
    id="waves_1_path_4"
    d="M0 442L22.8 449.7C45.7 457.3 91.3 472.7 137 479.7C182.7 486.7 228.3 485.3 274 480C319.7 474.7 365.3 465.3 411.2 463C457 460.7 503 465.3 548.8 470C594.7 474.7 640.3 479.3 686 479.8C731.7 480.3 777.3 476.7 823 468.7C868.7 460.7 914.3 448.3 937.2 442.2L960 436L960 541L937.2 541C914.3 541 868.7 541 823 541C777.3 541 731.7 541 686 541C640.3 541 594.7 541 548.8 541C503 541 457 541 411.2 541C365.3 541 319.7 541 274 541C228.3 541 182.7 541 137 541C91.3 541 45.7 541 22.8 541L0 541Z"
    fill="#d53867"
  ></path>
  <path
    id="waves_2_path_4"
    style="visibility: hidden"
    d="M0 437L22.8 440.7C45.7 444.3 91.3 451.7 137 454.7C182.7 457.7 228.3 456.3 274 459C319.7 461.7 365.3 468.3 411.2 465.2C457 462 503 449 548.8 449.5C594.7 450 640.3 464 686 470.3C731.7 476.7 777.3 475.3 823 473.5C868.7 471.7 914.3 469.3 937.2 468.2L960 467L960 541L937.2 541C914.3 541 868.7 541 823 541C777.3 541 731.7 541 686 541C640.3 541 594.7 541 548.8 541C503 541 457 541 411.2 541C365.3 541 319.7 541 274 541C228.3 541 182.7 541 137 541C91.3 541 45.7 541 22.8 541L0 541Z"
    fill="#d53867"
  ></path>

  <path
    id="waves_1_path_5"
    d="M0 497L22.8 496.7C45.7 496.3 91.3 495.7 137 492C182.7 488.3 228.3 481.7 274 480C319.7 478.3 365.3 481.7 411.2 481.8C457 482 503 479 548.8 479.7C594.7 480.3 640.3 484.7 686 490.7C731.7 496.7 777.3 504.3 823 508.8C868.7 513.3 914.3 514.7 937.2 515.3L960 516L960 541L937.2 541C914.3 541 868.7 541 823 541C777.3 541 731.7 541 686 541C640.3 541 594.7 541 548.8 541C503 541 457 541 411.2 541C365.3 541 319.7 541 274 541C228.3 541 182.7 541 137 541C91.3 541 45.7 541 22.8 541L0 541Z"
    fill="#c62368"
  ></path>
  <path
    id="waves_2_path_5"
    style="visibility: hidden"
    d="M0 483L22.8 483.7C45.7 484.3 91.3 485.7 137 485.2C182.7 484.7 228.3 482.3 274 481.5C319.7 480.7 365.3 481.3 411.2 482.5C457 483.7 503 485.3 548.8 489.3C594.7 493.3 640.3 499.7 686 503.3C731.7 507 777.3 508 823 504.7C868.7 501.3 914.3 493.7 937.2 489.8L960 486L960 541L937.2 541C914.3 541 868.7 541 823 541C777.3 541 731.7 541 686 541C640.3 541 594.7 541 548.8 541C503 541 457 541 411.2 541C365.3 541 319.7 541 274 541C228.3 541 182.7 541 137 541C91.3 541 45.7 541 22.8 541L0 541Z"
    fill="#c62368"
  ></path>
</svg>
